<?xml version="1.0" encoding="UTF-8"?>
<svg width="512px" height="512px" viewBox="0 0 512 512" version="1.1" xmlns="http://www.w3.org/2000/svg" xmlns:xlink="http://www.w3.org/1999/xlink">
    <title>favicon</title>
    <defs>
        <path d="M249.414778,419.4 C274.469675,419.4 295.658959,415.498595 312.982631,407.695784 C330.306302,399.892973 343.442227,388.904611 352.390404,374.730698 C361.338581,360.556785 365.81267,343.948968 365.81267,324.907246 C365.81267,312.308213 363.844071,301.17668 359.906873,291.512648 C355.969675,281.848617 350.207049,273.222574 342.618994,265.634519 C335.03094,258.046465 325.832213,251.031094 315.022815,244.588406 C304.213417,238.145718 291.936517,231.846201 278.192117,225.689855 C265.306741,219.819851 254.819477,214.486737 246.730325,209.690514 C238.641173,204.894291 232.699583,200.026482 228.905556,195.087088 C225.111528,190.147694 223.214515,184.456653 223.214515,178.013966 C223.214515,172.716645 224.789394,168.063592 227.939152,164.054809 C231.088911,160.046025 235.885134,156.93206 242.327822,154.712912 C248.770509,152.493764 257.002833,151.38419 267.024791,151.38419 C281.055534,151.38419 294.764141,153.49596 308.150615,157.719499 C321.537088,161.943039 331.451669,166.560299 337.894357,171.571278 L337.894357,171.571278 L350.35022,111.869038 C344.623386,108.432938 334.171915,104.49574 318.995806,100.057444 C303.819697,95.619148 284.205292,93.4 260.152591,93.4 C243.258432,93.4 227.867567,95.2254282 213.979996,98.8762846 C200.092424,102.527141 188.101866,108.003426 178.008322,115.305138 C167.914778,122.606851 160.111968,131.733992 154.59989,142.686561 C149.087813,153.63913 146.331774,166.417128 146.331774,181.020553 C146.331774,198.057883 149.767874,212.768687 156.640075,225.152964 C163.512275,237.537242 172.603623,248.131884 183.914119,256.936891 C195.224616,265.741897 207.608893,273.365744 221.066952,279.808432 C236.958915,287.396487 249.665327,293.696004 259.186188,298.706983 C268.707049,303.717962 275.543456,308.621563 279.695411,313.417787 C283.847365,318.21401 285.923342,324.048221 285.923342,330.920422 C285.923342,340.369697 282.523035,347.241897 275.72242,351.537022 C268.921805,355.832148 258.005029,357.97971 242.97209,357.97971 C231.804765,357.97971 220.744818,356.870136 209.792249,354.650988 C198.839679,352.43184 188.853513,349.747387 179.833751,346.597628 C170.813988,343.44787 163.655446,340.369697 158.358125,337.363109 L158.358125,337.363109 L148.479337,399.642424 C152.631291,402.219499 159.789833,405.047123 169.954963,408.125296 C180.120092,411.203469 192.11065,413.85213 205.926636,416.071278 C219.742622,418.290426 234.238669,419.4 249.414778,419.4 Z" id="path-1"></path>
        <filter x="-34.2%" y="-16.9%" width="163.8%" height="139.9%" filterUnits="objectBoundingBox" id="filter-2">
            <feOffset dx="-10" dy="10" in="SourceAlpha" result="shadowOffsetOuter1"></feOffset>
            <feGaussianBlur stdDeviation="20" in="shadowOffsetOuter1" result="shadowBlurOuter1"></feGaussianBlur>
            <feColorMatrix values="0 0 0 0 0   0 0 0 0 0   0 0 0 0 0  0 0 0 0.2 0" type="matrix" in="shadowBlurOuter1" result="shadowMatrixOuter1"></feColorMatrix>
            <feOffset dx="10" dy="15" in="SourceAlpha" result="shadowOffsetOuter2"></feOffset>
            <feGaussianBlur stdDeviation="15" in="shadowOffsetOuter2" result="shadowBlurOuter2"></feGaussianBlur>
            <feColorMatrix values="0 0 0 0 0   0 0 0 0 0   0 0 0 0 0  0 0 0 0.3 0" type="matrix" in="shadowBlurOuter2" result="shadowMatrixOuter2"></feColorMatrix>
            <feMerge>
                <feMergeNode in="shadowMatrixOuter1"></feMergeNode>
                <feMergeNode in="shadowMatrixOuter2"></feMergeNode>
            </feMerge>
        </filter>
    </defs>
    <g id="favicon" stroke="none" stroke-width="1" fill="none" fill-rule="evenodd">
        <path d="M192.29139,-7.76880231e-15 L319.70861,7.76880231e-15 C386.572515,-4.51389787e-15 410.818983,6.96192084 435.263428,20.0349528 C459.707872,33.1079847 478.892015,52.2921278 491.965047,76.7365722 C505.038079,101.181017 512,125.427485 512,192.29139 L512,319.70861 C512,386.572515 505.038079,410.818983 491.965047,435.263428 C478.892015,459.707872 459.707872,478.892015 435.263428,491.965047 C410.818983,505.038079 386.572515,512 319.70861,512 L192.29139,512 C125.427485,512 101.181017,505.038079 76.7365722,491.965047 C52.2921278,478.892015 33.1079847,459.707872 20.0349528,435.263428 C6.96192084,410.818983 3.00926524e-15,386.572515 -5.17920154e-15,319.70861 L5.17920154e-15,192.29139 C-3.00926524e-15,125.427485 6.96192084,101.181017 20.0349528,76.7365722 C33.1079847,52.2921278 52.2921278,33.1079847 76.7365722,20.0349528 C101.181017,6.96192084 125.427485,4.51389787e-15 192.29139,-7.76880231e-15 Z" id="Rectangle" fill="#244552"></path>
        <path d="M29.8293515,384 C29.8293515,394.88 38.6266212,403.692308 49.4880546,403.692308 C65.7752901,403.692308 78.9761092,416.915692 78.9761092,433.230769 C78.9761092,444.110769 87.7733788,452.923077 98.6348123,452.923077 C114.922048,452.923077 128.122867,466.146462 128.122867,482.461538 C128.122867,493.341538 136.920137,502.153846 147.78157,502.153846 L147.7804,510.584473 C143.553056,510.265245 139.574626,509.892611 135.814908,509.467174 C125.491542,504.870643 118.293515,494.508996 118.293515,482.461538 C118.293515,471.581538 109.496246,462.769231 98.6348123,462.769231 C82.3475768,462.769231 69.1467577,449.545846 69.1467577,433.230769 C69.1467577,422.350769 60.3494881,413.538462 49.4880546,413.538462 C33.2008191,413.538462 20,400.315077 20,384 L29.8293515,384 Z M285.829352,384 C285.829352,394.88 294.626621,403.692308 305.488055,403.692308 C321.77529,403.692308 334.976109,416.915692 334.976109,433.230769 C334.976109,444.110769 343.773379,452.923077 354.634812,452.923077 C370.922048,452.923077 384.122867,466.146462 384.122867,482.461538 C384.122867,493.341538 392.920137,502.153846 403.78157,502.153846 L403.783216,504.53518 C399.12973,505.755352 394.098895,506.829845 388.545274,507.755768 C380.002209,502.582427 374.293515,493.190484 374.293515,482.461538 C374.293515,471.581538 365.496246,462.769231 354.634812,462.769231 C338.347577,462.769231 325.146758,449.545846 325.146758,433.230769 C325.146758,422.350769 316.349488,413.538462 305.488055,413.538462 C289.200819,413.538462 276,400.315077 276,384 L285.829352,384 Z M194.294061,423.630769 L236,465.408 L229.050648,472.369231 L187.34471,430.592 L194.294061,423.630769 Z M450.294061,423.630769 L480.251051,453.638199 C478.260365,456.280234 476.181518,458.840072 474.016069,461.316154 L443.34471,430.592 L450.294061,423.630769 Z M29.8293515,256 C29.8293515,266.88 38.6266212,275.692308 49.4880546,275.692308 C65.7752901,275.692308 78.9761092,288.915692 78.9761092,305.230769 C78.9761092,316.110769 87.7733788,324.923077 98.6348123,324.923077 C114.922048,324.923077 128.122867,338.146462 128.122867,354.461538 C128.122867,365.341538 136.920137,374.153846 147.78157,374.153846 L147.78157,384 C131.494334,384 118.293515,370.776615 118.293515,354.461538 C118.293515,343.581538 109.496246,334.769231 98.6348123,334.769231 C82.3475768,334.769231 69.1467577,321.545846 69.1467577,305.230769 C69.1467577,294.350769 60.3494881,285.538462 49.4880546,285.538462 C33.2008191,285.538462 20,272.315077 20,256 L29.8293515,256 Z M285.829352,256 C285.829352,266.88 294.626621,275.692308 305.488055,275.692308 C321.77529,275.692308 334.976109,288.915692 334.976109,305.230769 C334.976109,316.110769 343.773379,324.923077 354.634812,324.923077 C370.922048,324.923077 384.122867,338.146462 384.122867,354.461538 C384.122867,365.341538 392.920137,374.153846 403.78157,374.153846 L403.78157,384 C387.494334,384 374.293515,370.776615 374.293515,354.461538 C374.293515,343.581538 365.496246,334.769231 354.634812,334.769231 C338.347577,334.769231 325.146758,321.545846 325.146758,305.230769 C325.146758,294.350769 316.349488,285.538462 305.488055,285.538462 C289.200819,285.538462 276,272.315077 276,256 L285.829352,256 Z M194.294061,295.630769 L236,337.408 L229.050648,344.369231 L187.34471,302.592 L194.294061,295.630769 Z M450.294061,295.630769 L492,337.408 L485.050648,344.369231 L443.34471,302.592 L450.294061,295.630769 Z M29.8293515,128 C29.8293515,138.88 38.6266212,147.692308 49.4880546,147.692308 C65.7752901,147.692308 78.9761092,160.915692 78.9761092,177.230769 C78.9761092,188.110769 87.7733788,196.923077 98.6348123,196.923077 C114.922048,196.923077 128.122867,210.146462 128.122867,226.461538 C128.122867,237.341538 136.920137,246.153846 147.78157,246.153846 L147.78157,256 C131.494334,256 118.293515,242.776615 118.293515,226.461538 C118.293515,215.581538 109.496246,206.769231 98.6348123,206.769231 C82.3475768,206.769231 69.1467577,193.545846 69.1467577,177.230769 C69.1467577,166.350769 60.3494881,157.538462 49.4880546,157.538462 C33.2008191,157.538462 20,144.315077 20,128 L29.8293515,128 Z M285.829352,128 C285.829352,138.88 294.626621,147.692308 305.488055,147.692308 C321.77529,147.692308 334.976109,160.915692 334.976109,177.230769 C334.976109,188.110769 343.773379,196.923077 354.634812,196.923077 C370.922048,196.923077 384.122867,210.146462 384.122867,226.461538 C384.122867,237.341538 392.920137,246.153846 403.78157,246.153846 L403.78157,256 C387.494334,256 374.293515,242.776615 374.293515,226.461538 C374.293515,215.581538 365.496246,206.769231 354.634812,206.769231 C338.347577,206.769231 325.146758,193.545846 325.146758,177.230769 C325.146758,166.350769 316.349488,157.538462 305.488055,157.538462 C289.200819,157.538462 276,144.315077 276,128 L285.829352,128 Z M194.294061,167.630769 L236,209.408 L229.050648,216.369231 L187.34471,174.592 L194.294061,167.630769 Z M450.294061,167.630769 L492,209.408 L485.050648,216.369231 L443.34471,174.592 L450.294061,167.630769 Z M78.9761092,49.2307692 C78.9761092,60.1107692 87.7733788,68.9230769 98.6348123,68.9230769 C114.922048,68.9230769 128.122867,82.1464615 128.122867,98.4615385 C128.122867,109.341538 136.920137,118.153846 147.78157,118.153846 L147.78157,128 C131.494334,128 118.293515,114.776615 118.293515,98.4615385 C118.293515,87.5815385 109.496246,78.7692308 98.6348123,78.7692308 C82.3475768,78.7692308 69.1467577,65.5458462 69.1467577,49.2307692 C69.1467577,41.5804113 64.7971146,34.9523847 58.4386809,31.691543 C61.2657414,29.5640448 64.1877134,27.5372709 67.2018164,25.6133073 C74.353046,31.0034529 78.9761092,39.5757398 78.9761092,49.2307692 Z M285.829352,0 C285.829352,10.88 294.626621,19.6923077 305.488055,19.6923077 C321.77529,19.6923077 334.976109,32.9156923 334.976109,49.2307692 C334.976109,60.1107692 343.773379,68.9230769 354.634812,68.9230769 C370.922048,68.9230769 384.122867,82.1464615 384.122867,98.4615385 C384.122867,109.341538 392.920137,118.153846 403.78157,118.153846 L403.78157,128 C387.494334,128 374.293515,114.776615 374.293515,98.4615385 C374.293515,87.5815385 365.496246,78.7692308 354.634812,78.7692308 C338.347577,78.7692308 325.146758,65.5458462 325.146758,49.2307692 C325.146758,38.3507692 316.349488,29.5384615 305.488055,29.5384615 C289.200819,29.5384615 276,16.3150769 276,0 L285.829352,0 Z M194.294061,39.6307692 L236,81.408 L229.050648,88.3692308 L187.34471,46.592 L194.294061,39.6307692 Z M450.294061,39.6307692 L492,81.408 L485.050648,88.3692308 L443.34471,46.592 L450.294061,39.6307692 Z" id="Combined-Shape" fill-opacity="0.2" fill="#14272E" fill-rule="nonzero"></path>
        <g id="S" fill-rule="nonzero">
            <use fill="black" fill-opacity="1" filter="url(#filter-2)" xlink:href="#path-1"></use>
            <use fill="#F9FAFB" xlink:href="#path-1"></use>
        </g>
    </g>
</svg>