<svg xmlns="http://www.w3.org/2000/svg" xml:space="preserve" style="fill-rule:evenodd;clip-rule:evenodd;stroke-linejoin:round;stroke-miterlimit:2" viewBox="0 0 512 512"><path d="M0 0h512v512H0z" style="fill:none"/><path d="M.085.015a.3.3 0 0 1-.023-.073 1 1 0 0 1-.024-.188h.1a.25.25 0 0 0 .064.133.15.15 0 0 0 .11.048.1.1 0 0 0 .049-.013.1.1 0 0 0 .025-.03.1.1 0 0 0 .008-.034.08.08 0 0 0-.022-.057.3.3 0 0 0-.055-.044L.249-.278A.5.5 0 0 1 .11-.377a.2.2 0 0 1-.051-.139q0-.061.03-.104A.2.2 0 0 1 .17-.685a.3.3 0 0 1 .113-.023q.029 0 .069.006a.2.2 0 0 1 .064.02l.085-.026a.2.2 0 0 1 .02.06q.005.038.007.078l.001.073v.015H.446Q.425-.567.387-.598a.13.13 0 0 0-.082-.03q-.04 0-.06.023a.1.1 0 0 0-.02.059q0 .032.018.054a.13.13 0 0 0 .045.038l.059.033.071.036q.038.021.069.048.03.027.051.064a.2.2 0 0 1 .019.087q0 .055-.028.1a.2.2 0 0 1-.08.073.26.26 0 0 1-.126.028.4.4 0 0 1-.161-.034z" style="fill:#152528;fill-rule:nonzero" transform="translate(100.643 436.946)scale(522.20943)"/></svg>