<?xml version="1.0" standalone="no"?>
<!DOCTYPE svg PUBLIC "-//W3C//DTD SVG 20010904//EN"
 "http://www.w3.org/TR/2001/REC-SVG-20010904/DTD/svg10.dtd">
<svg version="1.0" xmlns="http://www.w3.org/2000/svg"
 width="512.000000pt" height="512.000000pt" viewBox="0 0 512.000000 512.000000"
 preserveAspectRatio="xMidYMid meet">
<metadata>
Created by potrace 1.14, written by Peter Selinger 2001-2017
</metadata>
<g transform="translate(0.000000,512.000000) scale(0.100000,-0.100000)"
fill="#000000" stroke="none">
<path d="M2355 4439 c-541 -43 -937 -351 -1020 -794 -14 -71 -16 -123 -12
-250 7 -207 34 -314 117 -473 86 -165 254 -337 480 -491 146 -99 201 -131 490
-281 129 -67 278 -150 330 -185 108 -72 211 -167 258 -239 139 -214 39 -532
-193 -613 -79 -28 -287 -25 -385 6 -333 103 -574 401 -675 834 l-19 77 -259 0
-260 0 6 -142 c16 -381 120 -944 213 -1156 12 -28 27 -52 31 -52 4 0 95 38
201 85 l193 85 110 -40 c471 -173 1005 -177 1354 -10 152 73 314 206 406 333
65 89 132 230 160 333 26 101 36 314 20 422 -50 317 -230 561 -583 789 -96 62
-344 199 -420 232 -61 26 -395 211 -454 251 -130 89 -228 220 -253 338 -40
188 36 397 172 477 89 52 251 69 374 40 137 -32 288 -124 368 -222 84 -103
158 -260 206 -435 l24 -88 218 0 217 0 0 53 c0 28 -5 172 -10 318 -14 396 -43
599 -106 739 -15 33 -33 60 -40 60 -7 0 -108 -29 -224 -65 l-212 -65 -36 19
c-155 78 -529 131 -787 110z"/>
</g>
</svg>
