<?xml version="1.0" encoding="UTF-8"?>
<svg width="500px" height="500px" viewBox="0 0 500 500" version="1.1" xmlns="http://www.w3.org/2000/svg" xmlns:xlink="http://www.w3.org/1999/xlink">
    <!-- Generator: Sketch 56.3 (81716) - https://sketch.com -->
    <title>css</title>
    <desc>Created with Sketch.</desc>
    <g id="css" stroke="none" stroke-width="1" fill="none" fill-rule="evenodd">
        <g transform="translate(-16.000000, -16.000000)">
            <g>
                <g id="Layer_x0020_1" transform="translate(89.099609, 66.240234)">
                    <g id="_337846024">
                        <polygon id="_337847128" fill="#1572B6" points="321.974297 356.432207 353.35918 4.87086523 353.769609 0.259505859 349.145781 0.259505859 4.65474023 0.259505859 0.0306523437 0.259505859 0.441341797 4.87086523 31.7921953 356.489355 32.0535195 359.422109 34.8776914 360.204004 175.562598 399.259766 177.819961 399.259766 318.888281 360.146855 321.711934 359.364961"></polygon>
                        <polygon id="_337847104" fill="#35A8DB" points="326.507207 25.1967461 176.900391 25.1967461 176.900391 373.636484 298.408359 339.94748"></polygon>
                        <g id="Group" transform="translate(61.564453, 71.695312)" fill="#E9E9E8">
                            <polygon id="_337846984" points="115.169688 47.110834 9.64951367 91.0574629 13.1495957 134.566387 115.169688 90.9460234 223.691973 44.5485059 228.191113 0.0400039062"></polygon>
                            <polygon id="_337846144" points="115.169688 0.0420820313 115.951582 0.0420820313 116.842578 0.0420820313 117.730977 0.0420820313 118.621973 0.0420820313 119.512969 0.0420820313 120.403965 0.0420820313 121.294961 0.0420820313 122.185957 0.0420820313 123.076953 0.0420820313 123.967949 0.0420820313 124.858945 0.0420820313 125.749941 0.0420820313 126.640937 0.0420820313 127.531934 0.0420820313 128.42293 0.0420820313 129.313926 0.0420820313 130.202324 0.0420820313 131.09332 0.0420820313 131.984316 0.0420820313 132.875313 0.0420820313 133.766309 0.0420820313 134.657305 0.0420820313 135.548301 0.0420820313 136.439297 0.0420820313 137.330293 0.0420820313 138.221289 0.0420820313 139.112285 0.0420820313 140.000684 0.0420820313 140.89168 0.0420820313 141.782676 0.0420820313 142.673672 0.0420820313 143.564668 0.0420820313 144.455664 0.0420820313 145.34666 0.0420820313 146.237656 0.0420820313 147.128652 0.0420820313 148.019648 0.0420820313 148.910645 0.0420820313 149.801641 0.0420820313 150.692637 0.0420820313 151.583633 0.0420820313 152.474629 0.0420820313 153.363027 0.0420820313 154.254023 0.0420820313 155.14502 0.0420820313 156.036016 0.0420820313 156.927012 0.0420820313 157.818008 0.0420820313 158.709004 0.0420820313 159.6 0.0420820313 160.490996 0.0420820313 161.381992 0.0420820313 162.272988 0.0420820313 163.163984 0.0420820313 164.05498 0.0420820313 164.943379 0.0420820313 165.834375 0.0420820313 166.725371 0.0420820313 167.616367 0.0420820313 168.507363 0.0420820313 169.398359 0.0420820313 170.289355 0.0420820313 171.180352 0.0420820313 172.071348 0.0420820313 172.962344 0.0420820313 173.85334 0.0420820313 174.744336 0.0420820313 175.632734 0.0420820313 176.52373 0.0420820313 177.414727 0.0420820313 178.305723 0.0420820313 179.196719 0.0420820313 180.087715 0.0420820313 180.978711 0.0420820313 181.869707 0.0420820313 182.760703 0.0420820313 183.651699 0.0420820313 184.542695 0.0420820313 185.433691 0.0420820313 186.324687 0.0420820313 187.215684 0.0420820313 188.104082 0.0420820313 188.995078 0.0420820313 189.886074 0.0420820313 190.77707 0.0420820313 191.668066 0.0420820313 192.559063 0.0420820313 193.450059 0.0420820313 194.341055 0.0420820313 195.232051 0.0420820313 196.123047 0.0420820313 197.014043 0.0420820313 197.905039 0.0420820313 198.793437 0.0420820313 199.684434 0.0420820313 200.57543 0.0420820313 201.466426 0.0420820313 202.357422 0.0420820313 203.248418 0.0420820313 204.139414 0.0420820313 205.03041 0.0420820313 205.921406 0.0420820313 206.812402 0.0420820313 207.703398 0.0420820313 208.594395 0.0420820313 209.485391 0.0420820313 210.376387 0.0420820313 211.264785 0.0420820313 212.155781 0.0420820313 213.046777 0.0420820313 213.937773 0.0420820313 214.82877 0.0420820313 215.719766 0.0420820313 216.610762 0.0420820313 217.501758 0.0420820313 218.392754 0.0420820313 219.28375 0.0420820313 220.174746 0.0420820313 221.065742 0.0420820313 221.956738 0.0420820313 222.847734 0.0420820313 223.736133 0.0420820313 224.627129 0.0420820313 225.518125 0.0420820313 226.409121 0.0420820313 227.300117 0.0420820313 228.191113 0.0420820313 227.300117 8.85177344 226.409121 17.6606855 225.518125 26.4695977 224.627129 35.2813672 223.736133 44.0905391 223.691973 44.5485059 223.691973 44.5485059 222.847734 44.5485059 221.956738 44.5485059 221.065742 44.5485059 220.174746 44.5485059 219.28375 44.5485059 218.392754 44.5485059 217.501758 44.5485059 216.610762 44.5485059 215.719766 44.5485059 214.82877 44.5485059 213.937773 44.5485059 213.046777 44.5485059 212.155781 44.5485059 211.264785 44.5485059 210.376387 44.5485059 209.485391 44.5485059 208.594395 44.5485059 207.703398 44.5485059 206.812402 44.5485059 205.921406 44.5485059 205.03041 44.5485059 204.139414 44.5485059 203.248418 44.5485059 202.357422 44.5485059 201.466426 44.5485059 200.57543 44.5485059 199.684434 44.5485059 198.793437 44.5485059 197.905039 44.5485059 197.014043 44.5485059 196.123047 44.5485059 195.232051 44.5485059 194.341055 44.5485059 193.450059 44.5485059 192.559063 44.5485059 191.668066 44.5485059 190.77707 44.5485059 189.886074 44.5485059 188.995078 44.5485059 188.104082 44.5485059 187.215684 44.5485059 186.324687 44.5485059 185.433691 44.5485059 184.542695 44.5485059 183.651699 44.5485059 182.760703 44.5485059 181.869707 44.5485059 180.978711 44.5485059 180.087715 44.5485059 179.196719 44.5485059 178.305723 44.5485059 177.414727 44.5485059 176.52373 44.5485059 175.632734 44.5485059 174.744336 44.5485059 173.85334 44.5485059 172.962344 44.5485059 172.071348 44.5485059 171.180352 44.5485059 170.289355 44.5485059 169.398359 44.5485059 168.507363 44.5485059 167.616367 44.5485059 166.725371 44.5485059 165.834375 44.5485059 164.943379 44.5485059 164.05498 44.5485059 163.163984 44.5485059 162.272988 44.5485059 161.381992 44.5485059 160.490996 44.5485059 159.6 44.5485059 158.709004 44.5485059 157.818008 44.5485059 156.927012 44.5485059 156.036016 44.5485059 155.14502 44.5485059 154.254023 44.5485059 153.363027 44.5485059 152.474629 44.5485059 151.583633 44.5485059 150.692637 44.5485059 149.801641 44.5485059 148.910645 44.5485059 148.019648 44.5485059 147.128652 44.5485059 146.237656 44.5485059 145.34666 44.5485059 144.455664 44.5485059 143.564668 44.5485059 142.673672 44.5485059 141.782676 44.5485059 140.89168 44.5485059 140.000684 44.5485059 139.112285 44.5485059 138.221289 44.5485059 137.330293 44.5485059 136.439297 44.5485059 135.548301 44.5485059 134.657305 44.5485059 133.766309 44.5485059 132.875313 44.5485059 131.984316 44.5485059 131.09332 44.5485059 130.202324 44.5485059 129.313926 44.5485059 128.42293 44.5485059 127.531934 44.5485059 126.640937 44.5485059 125.749941 44.5485059 124.858945 44.5485059 123.967949 44.5485059 123.076953 44.5485059 122.185957 44.5485059 121.320937 44.5485059 121.294961 44.5485059 120.403965 44.5485059 119.512969 44.5485059 118.621973 44.5485059 117.730977 44.5485059 116.842578 44.5485059 115.951582 44.5485059 115.29957 44.5485059 115.169688 44.5485059 115.060586 44.5485059 114.16959 44.5485059 113.278594 44.5485059 112.387598 44.5485059 111.496602 44.5485059 110.605605 44.5485059 109.714609 44.5485059 108.824393 44.5485059 107.933656 44.5485059 107.04292 44.5485059 106.152184 44.5485059 105.261187 44.5485059 104.370451 44.5485059 103.479975 44.5485059 102.588979 44.5485059 101.698242 44.5485059 100.807246 44.5485059 99.9165098 44.5485059 99.0255137 44.5485059 98.1350371 44.5485059 97.2443008 44.5485059 96.3533047 44.5485059 95.4625684 44.5485059 94.5715723 44.5485059 93.6810957 44.5485059 92.7900996 44.5485059 91.8993633 44.5485059 91.008627 44.5485059 90.1176309 44.5485059 89.2268945 44.5485059 88.3361582 44.5485059 87.4454219 44.5485059 86.5544258 44.5485059 85.6636895 44.5485059 84.7729531 44.5485059 83.881957 44.5485059 82.9914805 44.5485059 82.1004844 44.5485059 81.209748 44.5485059 80.3190117 44.5485059 79.4280156 44.5485059 78.5375391 44.5485059 77.6468027 44.5485059 76.7558066 44.5485059 75.8648105 44.5485059 74.9740742 44.5485059 74.0835977 44.5485059 73.1926016 44.5485059 72.3018652 44.5485059 71.4111289 44.5485059 70.5201328 44.5485059 69.6296562 44.5485059 68.7386602 44.5485059 67.8479238 44.5485059 66.9569277 44.5485059 66.0661914 44.5485059 65.1754551 44.5485059 64.2847187 44.5485059 63.3939824 44.5485059 62.5029863 44.5485059 61.61225 44.5485059 60.7212539 44.5485059 59.8305176 44.5485059 58.940041 44.5485059 58.0490449 44.5485059 57.1583086 44.5485059 56.2673125 44.5485059 55.3765762 44.5485059 54.4855801 44.5485059 53.5951035 44.5485059 52.7043672 44.5485059 51.8133711 44.5485059 50.9226348 44.5485059 50.0316387 44.5485059 49.1411621 44.5485059 48.2504258 44.5485059 47.3594297 44.5485059 46.4686934 44.5485059 45.577957 44.5485059 44.6872207 44.5485059 43.7962246 44.5485059 42.9054883 44.5485059 42.014752 44.5485059 41.1237559 44.5485059 40.2330195 44.5485059 39.342543 44.5485059 38.4515469 44.5485059 37.5608105 44.5485059 36.6698145 44.5485059 35.7790781 44.5485059 34.888082 44.5485059 33.9976055 44.5485059 33.1068691 44.5485059 32.215873 44.5485059 31.3251367 44.5485059 30.4341406 44.5485059 29.5436641 44.5485059 28.652668 44.5485059 27.7619316 44.5485059 26.8711953 44.5485059 25.9801992 44.5485059 25.0897227 44.5485059 24.1987266 44.5485059 23.3079902 44.5485059 22.4172539 44.5485059 21.5262578 44.5485059 20.6355215 44.5485059 19.7447852 44.5485059 18.8540488 44.5485059 17.9630527 44.5485059 17.0723164 44.5485059 16.1815801 44.5485059 15.290584 44.5485059 14.4001074 44.5485059 13.5093711 44.5485059 12.618375 44.5485059 11.7273789 44.5485059 10.8366426 44.5485059 9.94616602 44.5485059 9.05516992 44.5485059 8.16443359 44.5485059 7.27369727 44.5485059 6.38270117 44.5485059 5.64756445 44.5485059 5.49222461 43.2896816 4.60122852 36.0804062 3.71049219 28.8734688 2.81949609 21.6636738 1.92875977 14.4567363 1.0382832 7.24953906 0.147546875 0.0420820313 1.0382832 0.0420820313 1.92875977 0.0420820313 2.81949609 0.0420820313 3.71049219 0.0420820313 4.60122852 0.0420820313 5.49222461 0.0420820313 6.38270117 0.0420820313 7.27369727 0.0420820313 8.16443359 0.0420820313 9.05516992 0.0420820313 9.94616602 0.0420820313 10.8366426 0.0420820313 11.7273789 0.0420820313 12.618375 0.0420820313 13.5093711 0.0420820313 14.4001074 0.0420820313 15.290584 0.0420820313 16.1815801 0.0420820313 17.0723164 0.0420820313 17.9630527 0.0420820313 18.8540488 0.0420820313 19.7447852 0.0420820313 20.6355215 0.0420820313 21.5262578 0.0420820313 22.4172539 0.0420820313 23.3079902 0.0420820313 24.1987266 0.0420820313 25.0897227 0.0420820313 25.9801992 0.0420820313 26.8711953 0.0420820313 27.7619316 0.0420820313 28.652668 0.0420820313 29.5436641 0.0420820313 30.4341406 0.0420820313 31.3251367 0.0420820313 32.215873 0.0420820313 33.1068691 0.0420820313 33.9976055 0.0420820313 34.888082 0.0420820313 35.7790781 0.0420820313 36.6698145 0.0420820313 37.5608105 0.0420820313 38.4515469 0.0420820313 39.342543 0.0420820313 40.2330195 0.0420820313 41.1237559 0.0420820313 42.014752 0.0420820313 42.9054883 0.0420820313 43.7962246 0.0420820313 44.6872207 0.0420820313 45.577957 0.0420820313 46.4686934 0.0420820313 47.3594297 0.0420820313 48.2504258 0.0420820313 49.1411621 0.0420820313 50.0316387 0.0420820313 50.9226348 0.0420820313 51.8133711 0.0420820313 52.7043672 0.0420820313 53.5951035 0.0420820313 54.4855801 0.0420820313 55.3765762 0.0420820313 56.2673125 0.0420820313 57.1583086 0.0420820313 58.0490449 0.0420820313 58.940041 0.0420820313 59.8305176 0.0420820313 60.7212539 0.0420820313 61.61225 0.0420820313 62.5029863 0.0420820313 63.3939824 0.0420820313 64.2847187 0.0420820313 65.1754551 0.0420820313 66.0661914 0.0420820313 66.9569277 0.0420820313 67.8479238 0.0420820313 68.7386602 0.0420820313 69.6296562 0.0420820313 70.5201328 0.0420820313 71.4111289 0.0420820313 72.3018652 0.0420820313 73.1926016 0.0420820313 74.0835977 0.0420820313 74.9740742 0.0420820313 75.8648105 0.0420820313 76.7558066 0.0420820313 77.6468027 0.0420820313 78.5375391 0.0420820313 79.4280156 0.0420820313 80.3190117 0.0420820313 81.209748 0.0420820313 82.1004844 0.0420820313 82.9914805 0.0420820313 83.881957 0.0420820313 84.7729531 0.0420820313 85.6636895 0.0420820313 86.5544258 0.0420820313 87.4454219 0.0420820313 88.3361582 0.0420820313 89.2268945 0.0420820313 90.1176309 0.0420820313 91.008627 0.0420820313 91.8993633 0.0420820313 92.7900996 0.0420820313 93.6810957 0.0420820313 94.5715723 0.0420820313 95.4625684 0.0420820313 96.3533047 0.0420820313 97.2443008 0.0420820313 98.1350371 0.0420820313 99.0255137 0.0420820313 99.9165098 0.0420820313 100.807246 0.0420820313 101.698242 0.0420820313 102.588979 0.0420820313 103.479975 0.0420820313 104.370451 0.0420820313 105.261187 0.0420820313 106.152184 0.0420820313 107.04292 0.0420820313 107.933656 0.0420820313 108.824393 0.0420820313 109.714609 0.0420820313 110.605605 0.0420820313 111.496602 0.0420820313 112.387598 0.0420820313 113.278594 0.0420820313 114.16959 0.0420820313 115.060586 0.0420820313"></polygon>
                            <polygon id="_337846384" points="9.81238672 91.0636973 219.857832 91.0636973 216.031484 135.067734 13.312209 134.566387"></polygon>
                            <polygon id="_337846192" points="16.375625 159.077871 62.3232285 159.096055 65.3211836 195.076191 115.169688 207.438437 166.346113 193.075996 169.808789 134.236484 216.166563 133.509141 207.854063 229.082109 115.335938 256.089941 22.1515137 228.583359"></polygon>
                        </g>
                        <g id="Group" transform="translate(176.900391, 71.695312)" fill="#FFFFFE">
                            <polygon id="_337846792" points="0 90.8745879 108.356035 44.5485059 112.855176 0.0400039062 0 47.0412168"></polygon>
                            <polygon id="_337846480" points="0 0.0420820313 0.615644531 0.0420820313 1.50664062 0.0420820313 2.39503906 0.0420820313 3.28603516 0.0420820313 4.17703125 0.0420820313 5.06802734 0.0420820313 5.95902344 0.0420820313 6.85001953 0.0420820313 7.74101562 0.0420820313 8.63201172 0.0420820313 9.52300781 0.0420820313 10.4140039 0.0420820313 11.305 0.0420820313 12.1959961 0.0420820313 13.0869922 0.0420820313 13.9779883 0.0420820313 14.8663867 0.0420820313 15.7573828 0.0420820313 16.6483789 0.0420820313 17.539375 0.0420820313 18.4303711 0.0420820313 19.3213672 0.0420820313 20.2123633 0.0420820313 21.1033594 0.0420820313 21.9943555 0.0420820313 22.8853516 0.0420820313 23.7763477 0.0420820313 24.6647461 0.0420820313 25.5557422 0.0420820313 26.4467383 0.0420820313 27.3377344 0.0420820313 28.2287305 0.0420820313 29.1197266 0.0420820313 30.0107227 0.0420820313 30.9017188 0.0420820313 31.7927148 0.0420820313 32.6837109 0.0420820313 33.574707 0.0420820313 34.4657031 0.0420820313 35.3566992 0.0420820313 36.2476953 0.0420820313 37.1386914 0.0420820313 38.0270898 0.0420820313 38.9180859 0.0420820313 39.809082 0.0420820313 40.7000781 0.0420820313 41.5910742 0.0420820313 42.4820703 0.0420820313 43.3730664 0.0420820313 44.2640625 0.0420820313 45.1550586 0.0420820313 46.0460547 0.0420820313 46.9370508 0.0420820313 47.8280469 0.0420820313 48.719043 0.0420820313 49.6074414 0.0420820313 50.4984375 0.0420820313 51.3894336 0.0420820313 52.2804297 0.0420820313 53.1714258 0.0420820313 54.0624219 0.0420820313 54.953418 0.0420820313 55.8444141 0.0420820313 56.7354102 0.0420820313 57.6264062 0.0420820313 58.5174023 0.0420820313 59.4083984 0.0420820313 60.2967969 0.0420820313 61.187793 0.0420820313 62.0787891 0.0420820313 62.9697852 0.0420820313 63.8607812 0.0420820313 64.7517773 0.0420820313 65.6427734 0.0420820313 66.5337695 0.0420820313 67.4247656 0.0420820313 68.3157617 0.0420820313 69.2067578 0.0420820313 70.0977539 0.0420820313 70.98875 0.0420820313 71.8797461 0.0420820313 72.7681445 0.0420820313 73.6591406 0.0420820313 74.5501367 0.0420820313 75.4411328 0.0420820313 76.3321289 0.0420820313 77.223125 0.0420820313 78.1141211 0.0420820313 79.0051172 0.0420820313 79.8961133 0.0420820313 80.7871094 0.0420820313 81.6781055 0.0420820313 82.5691016 0.0420820313 83.4575 0.0420820313 84.3484961 0.0420820313 85.2394922 0.0420820313 86.1304883 0.0420820313 87.0214844 0.0420820313 87.9124805 0.0420820313 88.8034766 0.0420820313 89.6944727 0.0420820313 90.5854688 0.0420820313 91.4764648 0.0420820313 92.3674609 0.0420820313 93.258457 0.0420820313 94.1494531 0.0420820313 95.0404492 0.0420820313 95.9288477 0.0420820313 96.8198438 0.0420820313 97.7108398 0.0420820313 98.6018359 0.0420820313 99.492832 0.0420820313 100.383828 0.0420820313 101.274824 0.0420820313 102.16582 0.0420820313 103.056816 0.0420820313 103.947813 0.0420820313 104.838809 0.0420820313 105.729805 0.0420820313 106.620801 0.0420820313 107.511797 0.0420820313 108.400195 0.0420820313 109.291191 0.0420820313 110.182188 0.0420820313 111.073184 0.0420820313 111.96418 0.0420820313 112.855176 0.0420820313 111.96418 8.85177344 111.073184 17.6606855 110.182188 26.4695977 109.291191 35.2813672 108.400195 44.0905391 108.356035 44.5485059 108.356035 44.5485059 107.511797 44.5485059 106.620801 44.5485059 105.729805 44.5485059 104.838809 44.5485059 103.947813 44.5485059 103.056816 44.5485059 102.16582 44.5485059 101.274824 44.5485059 100.383828 44.5485059 99.492832 44.5485059 98.6018359 44.5485059 97.7108398 44.5485059 96.8198438 44.5485059 95.9288477 44.5485059 95.0404492 44.5485059 94.1494531 44.5485059 93.258457 44.5485059 92.3674609 44.5485059 91.4764648 44.5485059 90.5854688 44.5485059 89.6944727 44.5485059 88.8034766 44.5485059 87.9124805 44.5485059 87.0214844 44.5485059 86.1304883 44.5485059 85.2394922 44.5485059 84.3484961 44.5485059 83.4575 44.5485059 82.5691016 44.5485059 81.6781055 44.5485059 80.7871094 44.5485059 79.8961133 44.5485059 79.0051172 44.5485059 78.1141211 44.5485059 77.223125 44.5485059 76.3321289 44.5485059 75.4411328 44.5485059 74.5501367 44.5485059 73.6591406 44.5485059 72.7681445 44.5485059 71.8797461 44.5485059 70.98875 44.5485059 70.0977539 44.5485059 69.2067578 44.5485059 68.3157617 44.5485059 67.4247656 44.5485059 66.5337695 44.5485059 65.6427734 44.5485059 64.7517773 44.5485059 63.8607812 44.5485059 62.9697852 44.5485059 62.0787891 44.5485059 61.187793 44.5485059 60.2967969 44.5485059 59.4083984 44.5485059 58.5174023 44.5485059 57.6264062 44.5485059 56.7354102 44.5485059 55.8444141 44.5485059 54.953418 44.5485059 54.0624219 44.5485059 53.1714258 44.5485059 52.2804297 44.5485059 51.3894336 44.5485059 50.4984375 44.5485059 49.6074414 44.5485059 48.719043 44.5485059 47.8280469 44.5485059 46.9370508 44.5485059 46.0460547 44.5485059 45.1550586 44.5485059 44.2640625 44.5485059 43.3730664 44.5485059 42.4820703 44.5485059 41.5910742 44.5485059 40.7000781 44.5485059 39.809082 44.5485059 38.9180859 44.5485059 38.0270898 44.5485059 37.1386914 44.5485059 36.2476953 44.5485059 35.3566992 44.5485059 34.4657031 44.5485059 33.574707 44.5485059 32.6837109 44.5485059 31.7927148 44.5485059 30.9017188 44.5485059 30.0107227 44.5485059 29.1197266 44.5485059 28.2287305 44.5485059 27.3377344 44.5485059 26.4467383 44.5485059 25.5557422 44.5485059 24.6647461 44.5485059 23.7763477 44.5485059 22.8853516 44.5485059 21.9943555 44.5485059 21.1033594 44.5485059 20.2123633 44.5485059 19.3213672 44.5485059 18.4303711 44.5485059 17.539375 44.5485059 16.6483789 44.5485059 15.7573828 44.5485059 14.8663867 44.5485059 13.9779883 44.5485059 13.0869922 44.5485059 12.1959961 44.5485059 11.305 44.5485059 10.4140039 44.5485059 9.52300781 44.5485059 8.63201172 44.5485059 7.74101562 44.5485059 6.85001953 44.5485059 5.985 44.5485059 5.95902344 44.5485059 5.06802734 44.5485059 4.17703125 44.5485059 3.28603516 44.5485059 2.39503906 44.5485059 1.50664062 44.5485059 0.615644531 44.5485059 0 44.5485059"></polygon>
                            <polygon id="_337845784" points="0 91.0636973 104.521895 91.0636973 100.695547 135.067734 0 134.818359"></polygon>
                            <polygon id="_337845328" points="0 207.39168 51.0101758 193.075996 54.4728516 134.236484 100.830625 133.509141 92.518125 229.082109 0 256.089941 0 256.087344"></polygon>
                        </g>
                    </g>
                </g>
                <rect id="Rectangle" x="0" y="0" width="532" height="532"></rect>
            </g>
        </g>
    </g>
</svg>