<?xml version="1.0" encoding="UTF-8"?>
<svg width="500px" height="500px" viewBox="0 0 500 500" version="1.1" xmlns="http://www.w3.org/2000/svg" xmlns:xlink="http://www.w3.org/1999/xlink">
    <!-- Generator: Sketch 56.3 (81716) - https://sketch.com -->
    <title>html</title>
    <desc>Created with Sketch.</desc>
    <g id="html" stroke="none" stroke-width="1" fill="none" fill-rule="evenodd">
        <g transform="translate(74.000000, 49.000000)">
            <g>
                <polyline id="Path" fill="#E34F26" fill-rule="nonzero" points="32.0909091 361.171875 0 0 353 0 320.909091 361.171875 176.108647 402"></polyline>
                <polyline id="Path" fill="#EF652A" fill-rule="nonzero" points="176.891353 370.59375 293.514412 338.402344 320.909091 29.0507812 176.891353 29.0507812"></polyline>
                <path d="M176.891353,163.3125 L118.18847,163.3125 L114.274945,117.773438 L176.891353,117.773438 L176.891353,73.8046875 L176.108647,73.8046875 L65.7472284,73.8046875 L66.5299335,85.5820312 L77.4878049,208.066406 L176.891353,208.066406 L176.891353,163.3125 Z M176.891353,278.730469 L176.108647,278.730469 L126.798226,265.382812 L123.667406,230.050781 L100.186253,230.050781 L79.8359202,230.050781 L85.3148559,299.929688 L176.108647,325.054688 L176.891353,325.054688 L176.891353,278.730469 Z" id="Shape" fill="#EBEBEB" fill-rule="nonzero"></path>
                <path d="M176.108647,163.3125 L176.108647,208.066406 L230.898004,208.066406 L225.419069,265.382812 L176.108647,278.730469 L176.108647,325.054688 L266.902439,299.929688 L267.685144,292.078125 L277.86031,175.089844 L279.425721,163.3125 L266.902439,163.3125 L176.108647,163.3125 Z M176.108647,73.8046875 L176.108647,101.285156 L176.108647,117.773438 L176.108647,117.773438 L283.339246,117.773438 L283.339246,117.773438 L283.339246,117.773438 L284.121951,108.351562 L286.470067,85.5820312 L287.252772,73.8046875 L176.108647,73.8046875 Z" id="Shape" fill="#FFFFFF" fill-rule="nonzero"></path>
            </g>
        </g>
    </g>
</svg>