<?xml version="1.0" encoding="UTF-8"?>
<svg width="500px" height="500px" viewBox="0 0 500 500" version="1.1" xmlns="http://www.w3.org/2000/svg" xmlns:xlink="http://www.w3.org/1999/xlink">
    <!-- Generator: Sketch 56.3 (81716) - https://sketch.com -->
    <title>javascript</title>
    <desc>Created with Sketch.</desc>
    <g id="javascript" stroke="none" stroke-width="1" fill="none" fill-rule="evenodd">
        <g transform="translate(50.000000, 50.000000)">
            <g>
                <rect id="Rectangle" fill="#F7DF1E" fill-rule="nonzero" x="0" y="0" width="400" height="400"></rect>
                <path d="M268.698413,312.501587 C276.755556,325.657143 287.238095,335.326984 305.777778,335.326984 C321.352381,335.326984 331.301587,327.542857 331.301587,316.787302 C331.301587,303.898413 321.079365,299.333333 303.936508,291.834921 L294.539683,287.803175 C267.415873,276.247619 249.396825,261.771429 249.396825,231.168254 C249.396825,202.977778 270.87619,181.51746 304.444444,181.51746 C328.342857,181.51746 345.52381,189.834921 357.904762,211.612698 L328.634921,230.406349 C322.190476,218.850794 315.238095,214.298413 304.444444,214.298413 C293.434921,214.298413 286.457143,221.28254 286.457143,230.406349 C286.457143,241.68254 293.44127,246.247619 309.568254,253.231746 L318.965079,257.257143 C350.901587,270.952381 368.933333,284.914286 368.933333,316.304762 C368.933333,350.146032 342.349206,368.685714 306.647619,368.685714 C271.739683,368.685714 249.187302,352.050794 238.152381,330.247619 L268.698413,312.501587 Z M135.91746,315.75873 C141.822222,326.234921 147.193651,335.092063 160.107937,335.092063 C172.457143,335.092063 180.247619,330.260317 180.247619,311.473016 L180.247619,183.663492 L217.834921,183.663492 L217.834921,311.980952 C217.834921,350.901587 195.015873,368.615873 161.707937,368.615873 C131.612698,368.615873 114.184127,353.04127 105.320635,334.28254 L135.91746,315.75873 Z" id="Shape" fill="#000000" fill-rule="nonzero"></path>
            </g>
        </g>
    </g>
</svg>