<?xml version="1.0" encoding="UTF-8"?>
<svg width="500px" height="500px" viewBox="0 0 500 500" version="1.1" xmlns="http://www.w3.org/2000/svg" xmlns:xlink="http://www.w3.org/1999/xlink">
    <!-- Generator: Sketch 56.3 (81716) - https://sketch.com -->
    <title>laravel</title>
    <desc>Created with Sketch.</desc>
    <g id="laravel" stroke="none" stroke-width="1" fill="none" fill-rule="evenodd">
        <g transform="translate(22.000000, 94.000000)" fill="#FB503B" id="Shape">
            <g>
                <path d="M453.677778,145.67027 C450.616667,142.297297 409.027778,90.227027 401.638889,81.372973 C394.25,72.5189189 390.766667,74.1 386.227778,74.8378378 C381.688889,75.5756757 329.016667,84.3243243 322.894444,85.3783784 C316.772222,86.4324324 312.972222,88.8567568 316.666667,94.127027 C320.044444,98.7648649 354.666667,147.883784 362.266667,158.635135 L224.516667,191.627027 L115.161111,8.74864865 C110.833333,2.31891892 109.883333,-5.55111512e-15 99.9611111,0.527027027 C90.0388889,0.948648649 14.0388889,7.27297297 8.65555556,7.69459459 C3.27222222,8.11621622 -2.74444444,10.5405405 2.74444444,23.2945946 C8.12777778,36.0486486 94.4722222,221.772973 96.9,227.148649 C99.3277778,232.524324 105.555556,241.272973 120.227778,237.794595 C135.216667,234.210811 187.255556,220.613514 215.65,213.235135 C230.638889,240.42973 261.355556,295.451351 266.95,303.356757 C274.55,313.897297 279.722222,312.105405 291.333333,308.627027 C300.411111,305.886486 433.2,258.243243 439.216667,255.713514 C445.233333,253.289189 448.927778,251.497297 444.811111,245.489189 C441.855556,241.062162 406.811111,194.262162 388.444444,169.702703 C401.005556,166.32973 445.655556,154.524324 450.511111,153.154054 C456,151.783784 456.738889,149.043243 453.677778,145.67027 Z M203.3,196.791892 C201.611111,197.108108 124.555556,215.554054 120.438889,216.502703 C116.322222,217.451351 116.322222,216.924324 115.9,215.554054 C115.477778,214.183784 24.1722222,26.2459459 22.9055556,23.927027 C21.6388889,21.6081081 21.7444444,19.7108108 22.9055556,19.7108108 C24.0666667,19.7108108 95.7388889,13.2810811 98.2722222,13.1756757 C100.805556,13.0702703 100.488889,13.5972973 101.438889,15.1783784 C101.438889,15.1783784 202.455556,189.308108 204.25,192.364865 C206.044444,195.527027 204.988889,196.475676 203.3,196.791892 Z M420.85,237.478378 C422.116667,239.375676 423.277778,240.640541 419.477778,242.010811 C415.572222,243.381081 288.905556,286.07027 286.477778,287.124324 C284.05,288.178378 282.044444,288.494595 278.877778,283.962162 C275.711111,279.42973 234.544444,208.175676 234.544444,208.175676 L368.811111,173.286486 C372.188889,172.232432 373.244444,171.494595 375.355556,174.867568 C377.466667,178.240541 419.583333,235.581081 420.85,237.478378 Z M429.4,142.297297 C426.338889,142.92973 377.044444,155.156757 377.044444,155.156757 L336.722222,99.9243243 C335.561111,98.3432432 334.611111,96.7621622 337.461111,96.3405405 C340.311111,95.9189189 386.122222,87.6972973 388.127778,87.2756757 C390.238889,86.8540541 392.033333,86.2216216 394.566667,89.7 C397.1,93.1783784 431.933333,137.237838 433.305556,138.924324 C434.677778,140.610811 432.461111,141.664865 429.4,142.297297 Z" fill-rule="nonzero"></path>
            </g>
        </g>
    </g>
</svg>