<?xml version="1.0" encoding="UTF-8"?>
<svg width="500px" height="500px" viewBox="0 0 500 500" version="1.1" xmlns="http://www.w3.org/2000/svg" xmlns:xlink="http://www.w3.org/1999/xlink">
    <!-- Generator: Sketch 57.1 (83088) - https://sketch.com -->
    <title>laravel</title>
    <desc>Created with Sketch.</desc>
    <g id="laravel" stroke="none" stroke-width="1" fill="none" fill-rule="evenodd">
        <g id="logomark.min" transform="translate(40.000000, 33.000000)" fill="#FF2D20">
            <path d="M420.762597,98.1821688 C420.918703,98.7607634 421,99.3573293 421,99.9566674 L421,193.113599 C421,195.547356 419.699848,197.795159 417.591574,199.005953 L339.511479,244.02218 L339.511479,333.248045 C339.511479,335.676306 338.222721,337.917778 336.12001,339.140399 L173.134491,433.09543 C172.761429,433.307691 172.354453,433.443538 171.947477,433.587875 C171.79486,433.638818 171.650723,433.732212 171.489628,433.774664 C170.350298,434.075112 169.152703,434.075112 168.013373,433.774664 C167.826842,433.723722 167.657268,433.621837 167.479216,433.553913 C167.106155,433.418067 166.716136,433.299201 166.360031,433.09543 L3.40842631,339.140399 C1.30143566,337.928314 0,335.681329 0,333.248045 L0,53.7772518 C0,53.1659413 0.0847867241,52.5716116 0.237402828,51.9942628 C0.288274862,51.798983 0.406976276,51.6206841 0.474805655,51.4254044 C0.601985741,51.0688066 0.720687155,50.7037183 0.907217948,50.3725918 C1.03439803,50.1518408 1.22092883,49.9735419 1.37354493,49.7697717 C1.5685544,49.4980781 1.74660652,49.2178941 1.97553067,48.9801623 C2.17054014,48.7848825 2.42490031,48.6405453 2.64534579,48.4707368 C2.89122729,48.2669667 3.11167278,48.0462156 3.39146897,47.8848976 L3.39994764,47.8848976 L84.8799895,0.907382089 C86.9795708,-0.302460696 89.5633462,-0.302460696 91.6629275,0.907382089 L173.142969,47.8848976 L173.159927,47.8848976 C173.431244,48.0547061 173.660168,48.2669667 173.90605,48.4622464 C174.126495,48.6320549 174.372377,48.7848825 174.567386,48.9716718 C174.804789,49.2178941 174.974363,49.4980781 175.177851,49.7697717 C175.321988,49.9735419 175.516998,50.1518408 175.635699,50.3725918 C175.830709,50.7122087 175.940931,51.0688066 176.07659,51.4254044 C176.144419,51.6206841 176.263121,51.798983 176.313993,52.0027532 C176.470099,52.5813478 176.549911,53.1779137 176.551396,53.7772518 L176.551396,228.331877 L244.448604,189.182532 L244.448604,99.948177 C244.448604,99.3538473 244.533391,98.7510272 244.686007,98.1821688 C244.745358,97.9783987 244.855581,97.8000998 244.92341,97.60482 C245.059069,97.2482222 245.17777,96.883134 245.364301,96.5520074 C245.491481,96.3312564 245.678012,96.1529575 245.822149,95.9491873 C246.025637,95.6774938 246.195211,95.3973098 246.432614,95.1595779 C246.627623,94.9642982 246.873505,94.819961 247.09395,94.6501525 C247.34831,94.4463823 247.568756,94.2256313 247.840073,94.0643132 L247.848552,94.0643132 L329.337073,47.0867977 C331.436188,45.8752118 334.020895,45.8752118 336.12001,47.0867977 L417.600052,94.0643132 C417.888327,94.2341217 418.108773,94.4463823 418.363133,94.6416621 C418.5751,94.8114705 418.820981,94.9642982 419.015991,95.1510875 C419.253393,95.3973098 419.422967,95.6774938 419.626455,95.9491873 C419.779071,96.1529575 419.965602,96.3312564 420.084303,96.5520074 C420.279313,96.883134 420.389536,97.2482222 420.525194,97.60482 C420.601502,97.8000998 420.711725,97.9783987 420.762597,98.1821688 Z M407.417167,189.182532 L407.417167,111.715905 L378.903391,128.153365 L339.511479,150.865249 L339.511479,228.331877 L407.425645,189.182532 L407.417167,189.182532 Z M325.937125,329.316979 L325.937125,251.799409 L287.189592,273.959415 L176.542917,337.196092 L176.542917,415.443839 L325.937125,329.316979 Z M13.5828332,65.5364889 L13.5828332,329.316979 L162.960084,415.435349 L162.960084,337.204583 L84.9223829,292.977965 L84.8969469,292.960984 L84.8630322,292.944003 C84.6001933,292.791175 84.3797479,292.570424 84.1338664,292.383635 C83.9218995,292.213826 83.676018,292.07798 83.4894873,291.89119 L83.4725299,291.865719 C83.2520844,291.653458 83.0994683,291.390255 82.9129375,291.152523 C82.7433641,290.923282 82.5398759,290.728002 82.4042172,290.49027 L82.3957385,290.464799 C82.2431224,290.210086 82.149857,289.904431 82.0396343,289.615757 C81.9294115,289.361044 81.7852741,289.123312 81.7174447,288.851619 L81.7174447,288.843128 C81.632658,288.520492 81.6157006,288.180875 81.581786,287.849749 C81.5478713,287.595036 81.4800419,287.340323 81.4800419,287.08561 L81.4800419,287.06863 L81.4800419,104.685834 L42.0966085,81.9654592 L13.5828332,65.5449793 L13.5828332,65.5364889 Z M88.2799372,14.644888 L20.3912072,53.7772518 L88.2629798,92.9096156 L156.143231,53.7687614 L88.2629798,14.644888 L88.2799372,14.644888 Z M123.585129,258.863441 L162.968562,236.160048 L162.968562,65.5364889 L134.454787,81.9739496 L95.0628751,104.685834 L95.0628751,275.309392 L123.585129,258.863441 Z M332.728542,60.8243036 L264.84829,99.9566674 L332.728542,139.089031 L400.600314,99.948177 L332.728542,60.8243036 Z M325.937125,150.865249 L286.545213,128.153365 L258.031438,111.715905 L258.031438,189.182532 L297.414871,211.885926 L325.937125,228.331877 L325.937125,150.865249 Z M169.743022,325.436855 L269.308072,268.517053 L319.077879,240.074133 L251.2485,200.967241 L173.151448,245.991959 L101.972993,287.026177 L169.743022,325.436855 Z" id="Shape"></path>
        </g>
    </g>
</svg>