<?xml version="1.0" encoding="UTF-8"?>
<svg width="500px" height="500px" viewBox="0 0 500 500" version="1.1" xmlns="http://www.w3.org/2000/svg" xmlns:xlink="http://www.w3.org/1999/xlink">
    <!-- Generator: Sketch 57.1 (83088) - https://sketch.com -->
    <title>laravel</title>
    <desc>Created with Sketch.</desc>
    <g id="laravel" stroke="none" stroke-width="1" fill="none" fill-rule="evenodd">
        <g id="logomark.min" transform="translate(53.000000, 47.000000)" fill="#FF2D20">
            <path d="M394.777259,92.0740616 C394.923724,92.6166606 395,93.176113 395,93.7381651 L395,181.099619 C395,183.381967 393.780143,185.48993 391.80207,186.625398 L318.544025,228.841077 L318.544025,312.516024 C318.544025,314.793218 317.334857,316.895244 315.362005,318.041803 L162.442099,406.151705 C162.092077,406.350761 161.710235,406.478156 161.328392,406.613514 C161.185202,406.661287 161.049966,406.748872 160.89882,406.788683 C159.829852,407.070439 158.706218,407.070439 157.63725,406.788683 C157.462239,406.74091 157.303138,406.645363 157.136082,406.581665 C156.78606,406.45427 156.420127,406.342799 156.086015,406.151705 L3.19792967,318.041803 C1.22106196,316.905124 0,314.797929 0,312.516024 L0,50.4316624 C0,49.8583827 0.0795504894,49.3010275 0.22274137,48.7595966 C0.270471664,48.5764656 0.381842349,48.4092591 0.445482741,48.226128 C0.564808475,47.8917149 0.67617916,47.5493395 0.851190236,47.238813 C0.970515971,47.0317954 1.14552705,46.8645888 1.28871793,46.6734956 C1.47168405,46.4187046 1.63874008,46.1559514 1.8535264,45.9330093 C2.03649253,45.7498783 2.275144,45.6145206 2.48197527,45.4552762 C2.71267169,45.264183 2.91950296,45.0571654 3.18201958,44.9058832 L3.18997462,44.9058832 L79.6379949,0.850932051 C81.6079108,-0.283644017 84.0321182,-0.283644017 86.0020341,0.850932051 L162.450054,44.9058832 L162.465964,44.9058832 C162.720526,45.0651276 162.935312,45.264183 163.166009,45.447314 C163.37284,45.6065584 163.603536,45.7498783 163.786503,45.9250471 C164.009244,46.1559514 164.168345,46.4187046 164.359266,46.6734956 C164.494502,46.8645888 164.677468,47.0317954 164.788839,47.238813 C164.971805,47.5573018 165.075221,47.8917149 165.202501,48.226128 C165.266142,48.4092591 165.377512,48.5764656 165.425243,48.7675589 C165.571708,49.3101579 165.646591,49.8696103 165.647984,50.4316624 L165.647984,214.126898 L229.352016,177.413112 L229.352016,93.7302029 C229.352016,93.1728476 229.431566,92.6075301 229.574757,92.0740616 C229.630443,91.8829683 229.733858,91.7157617 229.797499,91.5326307 C229.924779,91.1982176 230.03615,90.8558422 230.211161,90.5453157 C230.330487,90.3382981 230.505498,90.1710915 230.640734,89.9799983 C230.831655,89.7252073 230.990756,89.4624541 231.213497,89.239512 C231.396464,89.056381 231.62716,88.9210233 231.833991,88.7617789 C232.072643,88.5706857 232.279474,88.363668 232.534036,88.2123859 L232.541991,88.2123859 L308.997966,44.1574347 C310.967445,43.021224 313.392526,43.021224 315.362005,44.1574347 L391.810025,88.2123859 C392.080497,88.3716303 392.287328,88.5706857 392.52598,88.7538167 C392.724856,88.9130611 392.955552,89.056381 393.138519,89.2315498 C393.36126,89.4624541 393.520361,89.7252073 393.711282,89.9799983 C393.854473,90.1710915 394.029484,90.3382981 394.140855,90.5453157 C394.323821,90.8558422 394.427236,91.1982176 394.554517,91.5326307 C394.626113,91.7157617 394.729528,91.8829683 394.777259,92.0740616 Z M382.256012,177.413112 L382.256012,104.765837 L355.503182,120.18069 L318.544025,141.479623 L318.544025,214.126898 L382.263967,177.413112 L382.256012,177.413112 Z M305.807991,308.829517 L305.807991,236.134468 L269.453418,256.915857 L165.640029,316.218455 L165.640029,389.598255 L305.807991,308.829517 Z M12.7439884,61.4593341 L12.7439884,308.829517 L152.896041,389.590292 L152.896041,316.226417 L79.6777702,274.751225 L79.653905,274.7353 L79.6220848,274.719376 C79.3754783,274.576056 79.168647,274.369038 78.9379506,274.19387 C78.7390744,274.034625 78.508378,273.90723 78.3333669,273.732061 L78.3174568,273.708174 C78.1106255,273.509119 77.9674346,273.26229 77.7924236,273.039348 C77.6333226,272.824368 77.4424014,272.641237 77.3151206,272.418295 L77.3071656,272.394408 C77.1639747,272.155542 77.0764692,271.868902 76.9730535,271.598187 C76.8696379,271.35932 76.7344021,271.136378 76.6707617,270.881587 L76.6707617,270.873625 C76.5912112,270.571061 76.5753011,270.252572 76.5434809,269.942045 C76.5116607,269.703179 76.4480203,269.464312 76.4480203,269.225446 L76.4480203,269.209521 L76.4480203,98.1731204 L39.496818,76.8662255 L12.7439884,61.4672963 L12.7439884,61.4593341 Z M82.8279695,13.7338005 L19.1318927,50.4316624 L82.8120595,87.1295243 L146.500181,50.4237002 L82.8120595,13.7338005 L82.8279695,13.7338005 Z M115.952793,242.759034 L152.903996,221.468063 L152.903996,61.4593341 L126.151166,76.8741877 L89.1920087,98.1731204 L89.1920087,258.18185 L115.952793,242.759034 Z M312.179985,57.0403032 L248.491864,93.7381651 L312.179985,130.436027 L375.860152,93.7302029 L312.179985,57.0403032 Z M305.807991,141.479623 L268.848834,120.18069 L242.096004,104.765837 L242.096004,177.413112 L279.047207,198.704083 L305.807991,214.126898 L305.807991,141.479623 Z M159.26008,305.190784 L252.676219,251.812075 L299.372357,225.138646 L235.731965,188.46467 L162.458009,230.688311 L95.6753736,269.16971 L159.26008,305.190784 Z" id="Shape"></path>
        </g>
    </g>
</svg>