<?xml version="1.0" encoding="UTF-8"?>
<svg width="500px" height="500px" viewBox="0 0 500 500" version="1.1" xmlns="http://www.w3.org/2000/svg" xmlns:xlink="http://www.w3.org/1999/xlink">
    <!-- Generator: Sketch 56.3 (81716) - https://sketch.com -->
    <title>swift</title>
    <desc>Created with Sketch.</desc>
    <defs>
        <linearGradient x1="50%" y1="0%" x2="50%" y2="100%" id="linearGradient-1">
            <stop stop-color="#F88A36" offset="0%"></stop>
            <stop stop-color="#FD2020" offset="100%"></stop>
        </linearGradient>
    </defs>
    <g id="swift" stroke="none" stroke-width="1" fill="none" fill-rule="evenodd">
        <g transform="translate(5.000000, 41.000000)" fill="url(#linearGradient-1)" id="Path">
            <g>
                <path d="M346.666,383.712389 C292.5288,415.015944 218.0916,418.232222 143.202,386.104278 C82.56532,360.281167 32.25264,315.079111 1.77635684e-15,263.432889 C15.48136,276.344444 33.54256,286.678333 52.89368,295.711778 C130.2332,331.9965 207.55648,329.511722 261.97208,295.804667 C261.93728,295.769833 261.91408,295.746611 261.89088,295.711778 C184.48408,236.309333 118.68888,158.828389 69.66728,95.5594444 C59.34212,85.2278778 51.60144,72.314 43.86076,60.6924389 C103.2052,114.927939 197.38676,183.363828 230.92236,202.742772 C159.97676,127.839494 96.75676,34.8693278 99.33196,37.4469944 C211.57356,151.084939 316.07796,215.654328 316.07796,215.654328 C319.53476,217.604994 322.20276,219.23055 324.34876,220.681939 C326.61076,214.922828 328.59436,208.943106 330.26476,202.742772 C348.32596,136.88455 327.68956,61.9812722 282.53076,0.00116111111 C387.02356,63.2759111 448.95596,182.074994 423.14596,281.51255 C422.47316,284.194717 421.74236,286.84205 420.95356,289.442939 C421.25516,289.802883 421.55676,290.174439 421.85836,290.557606 C473.45516,355.126994 459.26836,423.562883 452.81876,410.651328 C424.82796,355.823661 373.01076,372.590106 346.66716,383.71355 L346.666,383.712389 Z" fill-rule="nonzero"></path>
            </g>
        </g>
    </g>
</svg>